<svg xmlns="http://www.w3.org/2000/svg" width="790" height="790" viewBox="0 0 790 790">
<g transform="translate(0.000000,790.000000) scale(0.100000,-0.100000)"
fill="#025636" stroke="none">
<path d="M2995 7486 c-11 -7 -213 -116 -450 -242 -236 -125 -448 -238 -470
-249 -22 -12 -89 -48 -150 -79 -189 -100 -447 -237 -512 -273 l-63 -34 0
-1548 c0 -851 -3 -1630 -7 -1729 -3 -107 -2 -182 3 -182 8 0 661 485 1054 783
509 386 908 689 1095 833 229 175 336 258 351 270 12 9 14 159 14 937 l0 925
-42 34 c-23 18 -74 56 -114 83 -97 67 -427 303 -539 385 -152 112 -139 106
-170 86z"/>
<path d="M980 5605 c-85 -45 -198 -105 -250 -133 -52 -29 -139 -75 -192 -104
l-98 -51 0 -2459 0 -2458 350 0 350 0 0 1030 0 1030 -300 0 c-165 0 -300 3
-300 8 1 4 67 59 147 122 80 63 165 131 187 151 23 19 84 69 136 111 52 41
103 84 113 95 16 19 17 95 15 1379 l-3 1360 -155 -81z"/>
<path d="M4106 4958 c-81 -62 -187 -142 -236 -178 -48 -36 -121 -90 -161 -121
-70 -53 -777 -579 -884 -659 -27 -20 -106 -78 -175 -128 -69 -51 -219 -162
-335 -247 -193 -143 -305 -225 -490 -360 -38 -28 -142 -105 -230 -170 -192
-142 -256 -189 -440 -325 -77 -57 -193 -143 -258 -192 l-118 -88 385 0 386 0
0 -1045 0 -1045 305 0 305 0 0 1140 0 1139 113 85 c61 47 258 194 437 327 179
133 358 267 399 298 40 31 108 81 150 111 83 61 485 360 792 591 l197 147 213
-172 c118 -94 306 -246 419 -337 238 -191 830 -668 934 -751 39 -32 114 -91
167 -132 133 -103 128 -97 124 -159 -1 -28 -4 -554 -5 -1167 l-2 -1115 305 -3
304 -2 5 37 c3 21 3 432 1 913 -3 481 -1 939 2 1017 l7 143 370 0 370 0 -74
63 c-41 34 -127 105 -192 157 -65 52 -145 118 -179 145 -33 28 -88 73 -123
100 -147 116 -442 354 -503 405 -36 31 -91 75 -121 99 l-55 43 -5 626 -5 627
-397 3 -398 2 0 -290 c0 -159 -3 -290 -6 -290 -7 0 -139 100 -359 271 -71 55
-161 125 -200 154 -38 29 -146 112 -240 184 -287 222 -338 261 -345 261 -3 0
-73 -51 -154 -112z"/>
<path d="M3160 1801 l0 -1078 38 -5 c20 -3 336 -4 702 -3 568 2 679 5 764 19
330 55 567 220 635 440 62 199 21 396 -108 524 -64 64 -125 100 -223 132 -38
12 -68 23 -68 25 0 2 28 19 63 37 125 65 233 207 257 337 32 171 -12 314 -134
437 -82 81 -137 114 -256 154 -173 59 -196 60 -966 60 l-704 0 0 -1079z m1302
567 c73 -34 98 -72 98 -148 0 -72 -24 -117 -83 -153 -39 -25 -61 -30 -162 -39
-70 -6 -198 -7 -321 -3 l-204 7 0 177 c0 98 3 181 7 185 4 4 143 6 308 4 l300
-3 57 -27z m26 -823 c60 -18 114 -61 132 -105 19 -46 9 -139 -20 -178 -28 -38
-86 -68 -159 -82 -30 -5 -188 -10 -352 -10 l-299 0 0 194 c0 177 2 195 18 200
9 3 154 3 322 1 245 -3 315 -7 358 -20z"/>
</g>
</svg>
